<?xml version="1.0" standalone="no"?>
<!DOCTYPE svg PUBLIC "-//W3C//DTD SVG 20010904//EN"
 "http://www.w3.org/TR/2001/REC-SVG-20010904/DTD/svg10.dtd">
<svg version="1.0" xmlns="http://www.w3.org/2000/svg"
 width="1024.000000pt" height="1024.000000pt" viewBox="0 0 1024.000000 1024.000000"
 preserveAspectRatio="xMidYMid meet">

<g transform="translate(0.000000,1024.000000) scale(0.100000,-0.100000)"
fill="#000000" stroke="none">
<path d="M246 7093 l-116 -118 0 -325 0 -325 118 -118 117 -117 441 0 c431 0
442 0 468 -21 l26 -20 0 -218 0 -217 -29 -28 c-27 -26 -36 -28 -112 -30 l-84
-1 2 -60 c1 -33 2 -97 2 -142 l1 -83 143 0 c78 0 147 4 152 8 6 4 57 55 113
114 l102 107 0 329 0 329 -106 111 -106 112 -452 0 -452 0 -27 28 -27 28 0
216 0 216 32 31 32 31 376 0 376 0 32 -33 c31 -32 32 -35 32 -125 l0 -92 145
0 145 0 0 152 0 151 -112 114 -112 113 -502 0 -501 0 -117 -117z"/>
<path d="M1869 7098 l-108 -113 -1 -745 0 -745 113 -113 112 -112 568 0 567 0
0 144 0 145 -506 0 c-495 1 -506 1 -535 22 l-29 20 0 245 0 244 535 0 535 0 0
145 0 145 -535 0 -535 0 0 249 0 249 31 26 31 26 504 0 504 0 0 140 0 140
-571 0 -572 0 -108 -112z"/>
<path d="M3290 6240 l0 -970 145 0 145 0 0 688 1 687 30 -35 c29 -34 144 -188
443 -595 81 -110 151 -201 155 -203 5 -1 144 180 310 403 167 222 307 407 312
410 5 4 9 -329 9 -844 l0 -851 -1904 0 -1905 0 -27 23 -26 23 1 252 2 252
-106 0 -105 0 0 -261 c0 -170 4 -275 12 -300 15 -52 68 -113 121 -138 43 -21
47 -21 1209 -21 l1166 0 6 -31 c3 -17 6 -47 6 -65 l0 -34 -480 0 -481 0 -39
41 c-36 38 -43 41 -76 36 -46 -8 -71 -30 -85 -77 -32 -105 100 -166 171 -80
l25 30 483 0 483 0 -3 -32 -3 -33 -430 4 -430 3 -29 -31 -30 -31 -304 0 -305
0 -34 40 c-29 34 -40 40 -74 40 -57 0 -104 -44 -104 -99 0 -58 43 -101 101
-101 36 0 47 5 75 37 l32 37 315 3 315 2 26 26 27 25 427 0 427 0 0 -45 0 -45
-357 0 -356 0 -53 -50 -53 -50 -243 0 -243 0 -27 34 c-34 43 -75 53 -121 31
-95 -45 -63 -185 42 -185 35 0 44 5 72 40 l32 40 255 0 255 0 48 45 48 45 350
0 351 0 2 -317 3 -318 513 -3 512 -2 0 -413 0 -414 -25 -11 c-33 -15 -60 -72
-51 -107 18 -73 117 -101 170 -49 20 21 26 37 26 69 0 41 -12 61 -64 103 -14
11 -15 58 -11 415 l5 402 90 3 90 3 0 -259 0 -259 -26 -11 c-30 -14 -54 -67
-47 -105 3 -15 19 -38 35 -52 39 -33 87 -33 127 1 26 22 31 33 31 70 0 34 -6
51 -25 69 -13 14 -29 25 -35 25 -7 0 -10 86 -10 260 l0 260 70 0 70 0 0 -371
0 -372 -37 -32 c-32 -28 -38 -38 -38 -73 0 -114 160 -144 195 -38 14 43 -6 96
-44 121 l-26 17 0 374 0 374 75 0 75 0 0 -239 c0 -227 -1 -240 -19 -246 -28
-9 -53 -52 -53 -93 0 -28 7 -43 31 -64 67 -60 161 -17 161 73 0 35 -6 47 -35
75 l-35 33 0 230 0 231 85 0 85 0 0 -386 0 -385 -35 -33 c-29 -27 -35 -41 -35
-73 0 -78 63 -119 134 -89 71 29 81 114 20 165 l-34 28 -7 319 c-3 175 -3 349
1 387 l8 67 84 0 84 0 2 -327 3 -328 150 -1 c100 -1 150 -5 153 -13 24 -72
143 -87 177 -21 24 46 19 87 -14 121 -42 42 -89 40 -140 -6 l-38 -35 -122 0
-121 0 0 305 0 305 90 0 90 0 0 -225 0 -225 115 0 c108 0 115 -1 126 -22 48
-95 189 -65 189 40 0 46 -34 87 -80 97 -33 7 -84 -15 -103 -45 -10 -18 -23
-20 -108 -20 l-95 0 2 33 c1 17 2 107 3 199 l1 168 528 2 527 3 5 200 5 200
239 -3 c131 -1 245 -6 252 -10 8 -4 52 -42 98 -84 l84 -77 178 -3 178 -4 8
-31 c4 -17 22 -43 40 -58 26 -22 39 -26 66 -21 19 3 45 14 57 26 19 18 34 20
167 20 l146 0 20 -34 c41 -69 140 -67 177 4 23 45 13 92 -27 125 -43 37 -101
30 -139 -14 l-25 -31 -142 0 c-135 0 -142 1 -142 20 0 31 -51 80 -90 86 -27 4
-44 0 -73 -20 -37 -25 -42 -26 -202 -26 l-164 0 -72 63 c-40 34 -86 74 -103
89 l-31 27 -252 1 -253 0 0 80 0 80 303 0 302 0 143 -121 142 -120 231 -2 231
-2 21 -29 c43 -59 110 -65 165 -14 29 28 30 95 2 131 -41 52 -133 44 -167 -14
l-17 -29 -221 0 -222 0 -151 125 -151 125 -305 0 -306 0 0 40 0 40 554 0 c543
0 555 0 561 -20 10 -31 54 -60 92 -60 48 0 103 54 103 100 0 41 -56 100 -94
100 -35 0 -83 -25 -96 -50 -10 -20 -22 -20 -565 -20 l-555 0 0 45 0 45 684 0
c673 0 685 0 691 -20 9 -28 58 -60 94 -60 43 0 90 45 98 92 5 33 2 41 -30 73
-49 49 -96 49 -143 0 l-33 -35 -681 0 -681 0 3 68 3 67 1630 5 c1799 6 1654 0
1716 67 60 63 64 82 67 293 l3 195 -118 131 c-397 438 -559 618 -566 630 -7
12 17 14 136 14 l144 0 111 119 112 119 0 328 0 327 -112 114 -112 113 -598 0
-598 0 0 -140 0 -140 528 0 527 -1 32 -27 33 -27 1 -224 c0 -218 0 -224 -22
-247 l-22 -24 -538 0 c-296 0 -539 -3 -541 -7 -2 -5 -2 -254 0 -555 l3 -548
145 0 144 0 0 410 0 410 115 0 114 0 198 -222 c108 -123 273 -307 366 -410
l169 -188 74 0 74 0 0 -144 c0 -130 -2 -146 -21 -170 l-20 -26 -2385 0 -2384
0 0 1140 0 1140 -124 0 -125 0 -119 -162 c-65 -90 -214 -297 -331 -461 -117
-164 -217 -297 -221 -295 -4 2 -155 209 -334 461 l-327 457 -129 0 -130 0 0
-970z m408 -1372 c7 -7 12 -22 12 -34 0 -14 17 -37 48 -63 26 -23 41 -41 35
-41 -7 0 -30 16 -52 35 -26 24 -48 35 -69 35 -40 0 -57 28 -36 58 17 24 44 28
62 10z m2677 -28 c0 -31 -3 -35 -27 -35 -15 -1 -45 -16 -68 -35 -64 -53 -71
-49 -16 8 29 31 47 56 43 65 -8 21 14 38 43 35 21 -3 25 -8 25 -38z m-821 14
c9 -8 16 -22 16 -29 0 -22 -31 -47 -52 -42 -12 4 -32 -6 -55 -26 l-36 -32 34
-5 34 -5 3 -307 3 -308 -321 0 -320 0 2 308 3 307 270 3 270 2 42 42 c29 29
43 51 43 68 0 15 3 30 7 33 11 12 41 7 57 -9z m224 -61 l3 -73 -31 0 -30 0 0
76 0 75 28 -3 c26 -3 27 -5 30 -75z m120 0 l3 -73 -29 0 c-36 0 -42 13 -42 84
0 60 5 68 40 64 24 -3 25 -6 28 -75z m112 2 l0 -75 -30 0 -30 0 0 75 0 75 30
0 30 0 0 -75z m120 0 l0 -75 -35 0 -35 0 0 75 0 75 35 0 35 0 0 -75z m-2067
-48 c-1 -51 -2 -99 -3 -107 0 -10 -11 -17 -30 -18 -24 -2 -32 3 -40 23 -10 26
-14 187 -6 196 3 3 22 3 43 1 l38 -4 -2 -91z m-143 0 c0 -111 -12 -138 -54
-119 -25 11 -26 14 -26 105 0 52 3 97 7 100 3 4 21 7 40 7 l33 0 0 -93z m290
-18 l0 -110 -32 3 -33 3 -3 108 -3 107 36 0 35 0 0 -111z m142 14 c3 -54 3
-104 0 -111 -3 -8 -17 -12 -36 -10 l-31 3 -3 108 -3 107 34 0 34 0 5 -97z
m260 -40 c32 -29 15 -62 -38 -68 -16 -1 -44 -21 -70 -49 -25 -25 -51 -46 -58
-46 -7 0 14 27 46 59 35 37 56 65 52 74 -6 15 20 47 38 47 6 0 20 -7 30 -17z
m1598 -294 c0 -261 -2 -291 -16 -285 -9 3 -132 6 -275 6 l-259 0 0 278 c0 153
3 282 7 285 3 4 127 7 275 7 l268 0 0 -291z m-1802 188 c9 -6 12 -79 12 -306
l0 -299 -42 -6 c-51 -7 -546 -6 -565 1 -10 4 -13 70 -13 307 0 167 2 305 4
307 8 8 591 4 604 -4z m-626 -93 c7 -56 -9 -64 -115 -62 l-92 2 95 6 95 6 -92
2 -93 2 0 40 0 40 99 0 99 0 4 -36z m2638 -9 l0 -35 -84 0 c-46 0 -91 3 -100
6 -16 6 -22 45 -9 57 3 4 48 7 100 7 l93 0 0 -35z m0 -105 l0 -30 -84 0 c-96
0 -116 5 -116 29 0 28 9 31 107 31 l93 0 0 -30z m-2710 0 c61 0 68 -2 73 -22
9 -32 -7 -38 -110 -38 l-93 0 0 36 c0 36 1 36 31 30 17 -3 62 -6 99 -6z m2710
-110 l0 -30 -100 0 c-98 0 -100 0 -100 23 0 13 3 27 7 30 3 4 48 7 100 7 l93
0 0 -30z m-2642 -32 l3 -28 -85 0 c-46 0 -91 -3 -100 -6 -12 -5 -16 1 -16 23
0 16 3 33 7 37 4 4 48 5 98 4 90 -3 90 -3 93 -30z m-55 -87 l58 -1 -3 -32 -3
-33 -97 -3 -98 -3 0 40 0 41 43 -4 c23 -2 68 -4 100 -5z m2043 -51 c11 0 14
-21 14 -101 0 -100 0 -101 -22 -95 -13 3 -29 6 -35 6 -10 0 -13 25 -13 93 0
97 4 111 28 102 7 -3 20 -5 28 -5z m132 -89 c3 -101 -2 -111 -44 -103 -23 4
-24 7 -24 91 0 92 9 114 45 109 18 -3 20 -12 23 -97z m120 -3 l3 -98 -36 0
-35 0 0 93 c0 52 3 97 7 101 4 4 19 6 33 4 25 -3 25 -4 28 -100z m112 12 c0
-49 0 -93 0 -97 0 -5 -15 -9 -35 -11 l-35 -3 0 85 c0 104 4 116 41 116 l29 0
0 -90z m148 10 c31 -33 54 -49 64 -45 20 8 40 -18 36 -47 -4 -32 -52 -38 -68
-8 -6 11 -9 24 -6 29 3 4 -17 33 -45 64 -63 70 -46 76 19 7z m-1290 -67 l-3
-108 -32 -3 -33 -3 0 110 0 111 35 0 36 0 -3 -107z m112 -3 l0 -110 -33 0 -33
0 -2 63 c-2 34 0 83 3 110 6 44 9 47 36 47 l29 0 0 -110z m120 0 l0 -110 -35
0 -35 0 0 110 0 110 35 0 35 0 0 -110z m122 100 c2 -5 2 -55 0 -110 l-3 -100
-35 0 -34 0 0 110 0 110 34 0 c19 0 36 -4 38 -10z m128 -100 l0 -110 -35 0
-35 0 0 110 0 110 35 0 35 0 0 -110z m-961 -16 c34 -31 57 -44 68 -40 17 7 53
-19 53 -39 0 -7 -9 -20 -19 -29 -26 -24 -59 -12 -67 22 -4 15 -29 51 -57 80
-63 64 -48 69 22 6z m-561 -72 l3 -83 -38 3 -38 3 -3 69 c-4 89 0 98 40 94
l33 -3 3 -83z m142 3 l0 -85 -39 0 c-35 0 -39 3 -45 31 -8 42 -8 124 1 132 3
4 24 7 45 7 l38 0 0 -85z m133 73 c-2 -5 -3 -42 -3 -83 l0 -75 -35 0 -35 0 0
86 0 85 38 -3 c20 -2 36 -6 35 -10z m137 -74 l0 -85 -37 3 -38 3 -3 83 -3 82
41 0 40 0 0 -86z m-588 30 c-36 -32 -52 -53 -50 -66 2 -12 -6 -26 -17 -34 -18
-12 -24 -12 -43 2 -12 8 -22 21 -22 29 0 23 30 45 53 40 17 -5 32 4 62 35 21
22 46 40 54 40 9 0 -8 -21 -37 -46z"/>
<path d="M3650 4840 c0 -15 5 -20 18 -18 9 2 17 10 17 18 0 8 -8 16 -17 18
-13 2 -18 -3 -18 -18z"/>
<path d="M6326 4851 c-7 -11 18 -33 27 -24 4 3 7 12 7 20 0 15 -26 18 -34 4z"/>
<path d="M5505 4840 c-4 -7 -3 -16 3 -22 14 -14 45 -2 40 15 -6 16 -34 21 -43
7z"/>
<path d="M4890 4405 l0 -285 290 0 290 0 0 285 0 285 -290 0 -290 0 0 -285z"/>
<path d="M5732 4795 c-1 -48 1 -55 17 -55 16 0 19 8 20 55 0 46 -3 55 -18 55
-14 0 -18 -9 -19 -55z"/>
<path d="M5852 4795 c2 -30 8 -55 13 -55 6 0 11 25 13 55 2 45 0 55 -13 55
-13 0 -15 -10 -13 -55z"/>
<path d="M5967 4853 c-4 -3 -7 -30 -7 -60 0 -40 4 -53 15 -53 12 0 15 13 15
60 0 55 -6 70 -23 53z"/>
<path d="M6079 4856 c0 -3 -1 -30 -1 -58 -1 -42 3 -54 16 -56 15 -3 17 4 14
54 -2 35 -8 59 -15 62 -7 2 -13 1 -14 -2z"/>
<path d="M4000 4735 c0 -88 1 -95 20 -95 18 0 20 7 20 79 0 44 3 86 6 95 5 12
0 16 -20 16 l-26 0 0 -95z"/>
<path d="M3860 4735 c0 -88 1 -95 20 -95 19 0 20 7 20 95 0 88 -1 95 -20 95
-19 0 -20 -7 -20 -95z"/>
<path d="M4160 4735 c0 -88 1 -95 20 -95 19 0 20 7 20 95 0 88 -1 95 -20 95
-19 0 -20 -7 -20 -95z"/>
<path d="M4300 4735 c0 -88 1 -95 20 -95 19 0 20 7 20 95 0 88 -1 95 -20 95
-19 0 -20 -7 -20 -95z"/>
<path d="M4567 4694 c-9 -9 4 -34 18 -34 14 0 27 25 18 34 -4 3 -12 6 -18 6
-6 0 -14 -3 -18 -6z"/>
<path d="M5808 4673 l-118 -4 0 -257 0 -258 245 -2 245 -2 0 255 c0 140 0 258
0 263 0 8 -181 10 -372 5z"/>
<path d="M3821 4361 c-1 -120 1 -248 5 -285 l7 -66 278 0 279 0 0 285 0 285
-284 0 -284 0 -1 -219z"/>
<path d="M3590 4500 c0 -18 7 -20 85 -20 78 0 85 2 85 20 0 18 -7 20 -85 20
-78 0 -85 -2 -85 -20z"/>
<path d="M6247 4504 c-16 -16 10 -24 79 -24 59 0 74 3 74 15 0 12 -15 15 -73
15 -41 0 -77 -3 -80 -6z"/>
<path d="M6250 4395 c0 -12 15 -15 75 -15 57 0 75 3 75 14 0 10 -19 14 -75 15
-61 1 -75 -1 -75 -14z"/>
<path d="M3596 4365 c-4 -13 8 -15 79 -15 69 0 85 3 85 15 0 12 -15 15 -79 15
-61 0 -80 -3 -85 -15z"/>
<path d="M6246 4284 c-7 -19 0 -21 84 -20 60 1 75 4 75 16 0 21 -151 25 -159
4z"/>
<path d="M3595 4250 c3 -5 42 -10 86 -10 46 0 79 4 79 10 0 6 -35 10 -86 10
-54 0 -83 -4 -79 -10z"/>
<path d="M3590 4130 c0 -18 7 -20 85 -20 78 0 85 2 85 20 0 18 -7 20 -85 20
-78 0 -85 -2 -85 -20z"/>
<path d="M5730 4015 c0 -69 3 -85 15 -85 12 0 15 14 15 69 0 38 3 76 6 85 4
12 0 16 -15 16 -20 0 -21 -5 -21 -85z"/>
<path d="M5850 4015 c0 -69 3 -85 15 -85 12 0 15 16 15 85 0 69 -3 85 -15 85
-12 0 -15 -16 -15 -85z"/>
<path d="M5964 4084 c3 -9 6 -47 6 -85 0 -55 3 -69 15 -69 12 0 15 16 15 85 0
80 -1 85 -21 85 -15 0 -19 -4 -15 -16z"/>
<path d="M6080 4015 c0 -67 3 -85 14 -85 19 0 24 20 25 103 2 61 0 67 -19 67
-19 0 -20 -6 -20 -85z"/>
<path d="M6330 3965 c-10 -12 -9 -16 5 -21 23 -9 40 10 22 25 -11 9 -17 8 -27
-4z"/>
<path d="M4930 3965 c0 -88 1 -95 20 -95 19 0 20 7 20 95 0 88 -1 95 -20 95
-19 0 -20 -7 -20 -95z"/>
<path d="M5057 4064 c-4 -4 -7 -49 -7 -101 0 -76 3 -93 15 -93 12 0 15 17 15
90 0 50 0 93 1 97 1 10 -16 15 -24 7z"/>
<path d="M5170 3970 c0 -82 3 -100 15 -100 12 0 15 18 15 100 0 82 -3 100 -15
100 -12 0 -15 -18 -15 -100z"/>
<path d="M5290 3965 c0 -78 3 -95 15 -95 12 0 15 14 16 63 0 34 2 77 5 95 3
27 1 32 -16 32 -19 0 -20 -7 -20 -95z"/>
<path d="M5417 4063 c-4 -3 -7 -48 -7 -100 0 -86 1 -93 20 -93 19 0 20 7 20
100 0 77 -3 100 -13 100 -8 0 -17 -3 -20 -7z"/>
<path d="M4573 3889 c-14 -14 -6 -39 12 -39 18 0 26 27 11 39 -9 7 -16 7 -23
0z"/>
<path d="M3892 3883 c2 -55 6 -68 21 -71 15 -3 17 5 17 67 0 65 -2 71 -20 71
-19 0 -21 -5 -18 -67z"/>
<path d="M4026 3883 c1 -61 4 -68 23 -71 20 -3 21 1 21 67 0 68 -1 71 -23 71
-22 0 -23 -3 -21 -67z"/>
<path d="M4160 3880 c0 -63 2 -70 20 -70 18 0 20 7 20 70 0 63 -2 70 -20 70
-18 0 -20 -7 -20 -70z"/>
<path d="M4300 3879 c0 -62 2 -70 18 -67 14 3 18 16 20 71 3 62 1 67 -18 67
-18 0 -20 -6 -20 -71z"/>
<path d="M3670 3854 c-9 -10 -10 -18 -2 -26 12 -12 32 -2 32 17 0 21 -16 26
-30 9z"/>
<path d="M5421 7095 l-111 -115 0 -736 0 -736 112 -119 113 -119 495 0 495 0
113 113 112 112 0 443 0 442 -355 0 -355 0 0 -145 0 -145 210 0 210 0 -1 -242
0 -243 -28 -22 c-28 -22 -34 -22 -399 -25 l-371 -3 -30 29 -31 30 0 626 0 626
33 32 33 32 542 0 542 0 0 140 0 140 -609 0 -608 0 -112 -115z"/>
<path d="M7032 7096 l-112 -114 0 -856 0 -856 145 0 145 0 0 410 0 410 435 0
435 0 0 -410 0 -410 145 0 145 0 0 853 -1 852 -113 118 -114 117 -499 0 -500
0 -111 -114z m1014 -200 l34 -34 0 -241 0 -241 -435 0 -435 0 0 242 0 242 32
33 32 33 369 0 369 0 34 -34z"/>
<path d="M10039 7171 c-82 -83 32 -213 123 -141 79 62 44 170 -55 170 -29 0
-46 -7 -68 -29z m121 -11 c30 -30 27 -83 -6 -109 -15 -12 -37 -21 -49 -21 -37
0 -75 37 -75 73 0 66 84 103 130 57z"/>
<path d="M10083 7153 c-15 -6 -18 -93 -3 -93 6 0 10 10 10 22 l0 21 25 -23
c26 -24 47 -21 26 4 -8 10 -9 16 -1 21 18 11 11 42 -12 49 -26 6 -28 6 -45 -1z
m45 -25 c-7 -19 -38 -22 -38 -4 0 10 9 16 21 16 12 0 19 -5 17 -12z"/>
<path d="M130 5652 l0 -147 118 -118 117 -117 148 0 147 0 0 140 0 140 -86 0
c-77 0 -89 3 -120 26 l-34 26 0 99 0 99 -145 0 -145 0 0 -148z"/>
</g>
</svg>
